<svg width="51" height="50" version="1.1" xmlns="http://www.w3.org/2000/svg" desc="Created with imagetracer.js version 1.2.6" ><path fill="rgb(127,0,0)" stroke="rgb(127,0,0)" stroke-width="1" opacity="1" d="M 20.5 7 L 23 7.5 L 16.5 10 L 13 13.5 L 11.5 16 L 12 14.5 L 16.5 9 L 20.5 7 Z " /><path fill="rgb(127,0,0)" stroke="rgb(127,0,0)" stroke-width="1" opacity="1" d="M 28.5 7 L 34.5 9 L 39 13.5 L 40 15.5 L 38 14.5 L 34.5 10 L 28.5 8 L 28.5 7 Z " /><path fill="rgb(127,0,0)" stroke="rgb(127,0,0)" stroke-width="1" opacity="1" d="M 21.5 12 L 25 12.5 L 19 14.5 L 23 16.5 L 20.5 17 L 18 16 L 19.5 13 L 21.5 12 Z " /><path fill="rgb(127,0,0)" stroke="rgb(127,0,0)" stroke-width="1" opacity="1" d="M 27.5 12 L 33 14.5 L 33 16 L 31.5 16 L 29.5 17 L 29.5 16 L 32 14.5 L 27.5 13 L 27.5 12 Z " /><path fill="rgb(127,0,0)" stroke="rgb(127,0,0)" stroke-width="1" opacity="1" d="M 10.5 17 L 11 18.5 L 10 25 L 8 25 L 8 26.5 L 7 26.5 L 10.5 17 Z " /><path fill="rgb(127,0,0)" stroke="rgb(127,0,0)" stroke-width="1" opacity="1" d="M 24.5 17 L 27 17.5 L 24.5 18 L 24.5 17 Z " /><path fill="rgb(127,0,0)" stroke="rgb(127,0,0)" stroke-width="1" opacity="1" d="M 15.5 18 L 19 20.5 L 17.5 21 L 15 20 L 14.5 24 L 14 20.5 L 15.5 18 Z " /><path fill="rgb(127,0,0)" stroke="rgb(127,0,0)" stroke-width="1" opacity="1" d="M 35.5 18 L 37 23.5 L 36 23.5 L 34.5 20 L 32.5 21 L 32.5 20 L 35.5 18 Z " /><path fill="rgb(127,0,0)" stroke="rgb(127,0,0)" stroke-width="1" opacity="1" d="M 20.5 21 L 28.5 22 L 30.5 21 L 30.5 22 L 22.5 23 L 20.5 21 Z " /><path fill="rgb(127,0,0)" stroke="rgb(127,0,0)" stroke-width="1" opacity="1" d="M 41.5 21 L 43 24.5 L 41 25 L 41.5 21 Z " /><path fill="rgb(127,0,0)" stroke="rgb(127,0,0)" stroke-width="1" opacity="1" d="M 11.5 28 L 40 28.5 L 11.5 29 L 11.5 28 Z " /><path fill="rgb(127,0,0)" stroke="rgb(127,0,0)" stroke-width="1" opacity="1" d="M 29 30 L 31 30 L 31 36 L 29 36 L 29 30 Z " /><path fill="rgb(127,0,0)" stroke="rgb(127,0,0)" stroke-width="1" opacity="1" d="M 8.5 32 L 10 32.5 L 10 39.5 L 13.5 45 L 16 46.5 L 15.5 48 L 9 40.5 L 9 33.5 L 8.5 32 Z " /><path fill="rgb(127,0,0)" stroke="rgb(127,0,0)" stroke-width="1" opacity="1" d="M 15.5 33 L 20 34.5 L 14.5 35 L 15.5 33 Z " /><path fill="rgb(127,0,0)" stroke="rgb(127,0,0)" stroke-width="1" opacity="1" d="M 24.5 33 L 25 37.5 L 27.5 40 L 30.5 41 L 32.5 41 L 35 41 L 35 39.5 L 33 39.5 L 35.5 33 L 37 34.5 L 36 37.5 L 36 40.5 L 34.5 42 L 16.5 42 L 15 40.5 L 16.5 41 L 27 40.5 L 23 34.5 L 24.5 33 Z " /><path fill="rgb(127,0,0)" stroke="rgb(127,0,0)" stroke-width="1" opacity="1" d="M 39.5 43 L 37.5 46 L 35.5 47 L 36.5 45 L 39.5 43 Z " /><path fill="rgb(127,0,0)" stroke="rgb(127,0,0)" stroke-width="1" opacity="1" d="M 23.5 46 L 28 46.5 L 23.5 47 L 23.5 46 Z " /><path fill="rgb(127,0,0)" stroke="rgb(127,0,0)" stroke-width="1" opacity="1" d="M 29.5 46 L 30 48.5 L 29 48.5 L 29.5 46 Z " /><path fill="rgb(127,0,127)" stroke="rgb(127,0,127)" stroke-width="1" opacity="1" d="M 18.5 1 L 21 1.5 L 18.5 2 L 18.5 1 Z " /><path fill="rgb(127,0,127)" stroke="rgb(127,0,127)" stroke-width="1" opacity="1" d="M 33.5 2 L 38.5 4 L 44 9.5 L 38.5 5 L 33.5 3 L 33.5 2 Z " /><path fill="rgb(127,0,127)" stroke="rgb(127,0,127)" stroke-width="1" opacity="1" d="M 10.5 5 L 5 11.5 L 1.5 21 L 1 18.5 L 4 11.5 L 10.5 5 Z " /><path fill="rgb(127,0,127)" stroke="rgb(127,0,127)" stroke-width="1" opacity="1" d="M 24.5 11 L 27 11.5 L 24.5 12 L 24.5 11 Z " /><path fill="rgb(127,0,127)" stroke="rgb(127,0,127)" stroke-width="1" opacity="1" d="M 45.5 11 L 47 13.5 L 45 12.5 L 45.5 11 Z " /><path fill="rgb(127,0,127)" stroke="rgb(127,0,127)" stroke-width="1" opacity="1" d="M 47.5 15 L 49 17.5 L 47 16.5 L 47.5 15 Z " /><path fill="rgb(127,0,127)" stroke="rgb(127,0,127)" stroke-width="1" opacity="1" d="M 49.5 22 L 50 26.5 L 49 26.5 L 49.5 22 Z " /><path fill="rgb(127,0,127)" stroke="rgb(127,0,127)" stroke-width="1" opacity="1" d="M 15.5 23 L 21 23.5 L 15.5 24 L 15.5 23 Z " /><path fill="rgb(127,0,127)" stroke="rgb(127,0,127)" stroke-width="1" opacity="1" d="M 24.5 23 L 29 23.5 L 24.5 24 L 24.5 23 Z " /><path fill="rgb(127,0,127)" stroke="rgb(127,0,127)" stroke-width="1" opacity="1" d="M 30.5 23 L 36 23.5 L 30.5 24 L 30.5 23 Z " /><path fill="rgb(127,0,127)" stroke="rgb(127,0,127)" stroke-width="1" opacity="1" d="M 15.5 27 L 24 27.5 L 15.5 28 L 15.5 27 Z " /><path fill="rgb(127,0,127)" stroke="rgb(127,0,127)" stroke-width="1" opacity="1" d="M 25.5 27 L 28 27.5 L 25.5 28 L 25.5 27 Z " /><path fill="rgb(127,0,127)" stroke="rgb(127,0,127)" stroke-width="1" opacity="1" d="M 43.5 27 L 44 29.5 L 43 29.5 L 43.5 27 Z " /><path fill="rgb(127,0,127)" stroke="rgb(127,0,127)" stroke-width="1" opacity="1" d="M 1.5 29 L 2 31.5 L 1 31.5 L 1.5 29 Z " /><path fill="rgb(127,0,127)" stroke="rgb(127,0,127)" stroke-width="1" opacity="1" d="M 48.5 30 L 49 32.5 L 47.5 35 L 47 33.5 L 48.5 30 Z " /><path fill="rgb(127,0,127)" stroke="rgb(127,0,127)" stroke-width="1" opacity="1" d="M 2.5 33 L 5 38.5 L 10.5 44 L 14 46.5 L 11.5 45 L 4 38.5 L 2.5 33 Z " /><path fill="rgb(127,0,127)" stroke="rgb(127,0,127)" stroke-width="1" opacity="1" d="M 16.5 33 L 24 33.5 L 16.5 34 L 16.5 33 Z " /><path fill="rgb(127,0,127)" stroke="rgb(127,0,127)" stroke-width="1" opacity="1" d="M 36.5 37 L 37 39.5 L 36 39.5 L 36.5 37 Z " /><path fill="rgb(127,0,127)" stroke="rgb(127,0,127)" stroke-width="1" opacity="1" d="M 45.5 38 L 42.5 42 L 45.5 38 Z " /><path fill="rgb(127,0,127)" stroke="rgb(127,0,127)" stroke-width="1" opacity="1" d="M 39.5 42 L 41 43.5 L 38.5 46 L 37.5 44 L 38.5 45 L 40 43.5 L 39.5 42 Z " /><path fill="rgb(127,127,127)" stroke="rgb(127,127,127)" stroke-width="1" opacity="1" d="M 10.5 34 L 11 38.5 L 10 38.5 L 10.5 34 Z " /><path fill="rgb(127,127,127)" stroke="rgb(127,127,127)" stroke-width="1" opacity="1" d="M 43.5 41 L 42.5 43 L 43.5 41 Z " /><path fill="rgb(127,127,127)" stroke="rgb(127,127,127)" stroke-width="1" opacity="1" d="M 17.5 42 L 23 42.5 L 17.5 43 L 17.5 42 Z " /><path fill="rgb(127,127,127)" stroke="rgb(127,127,127)" stroke-width="1" opacity="1" d="M 24.5 42 L 27 42.5 L 24.5 43 L 24.5 42 Z " /><path fill="rgb(127,127,127)" stroke="rgb(127,127,127)" stroke-width="1" opacity="1" d="M 31.5 42 L 34 42.5 L 31.5 43 L 31.5 42 Z " /><path fill="rgb(254,0,0)" stroke="rgb(254,0,0)" stroke-width="1" opacity="1" d="M 32.5 5 L 34 5 L 34 6.5 L 34.5 8 L 32.5 8 L 30 6.5 L 32.5 5 Z " /><path fill="rgb(254,0,0)" stroke="rgb(254,0,0)" stroke-width="1" opacity="1" d="M 22.5 6 L 29 6.5 L 22.5 7 L 22.5 6 Z " /><path fill="rgb(254,0,0)" stroke="rgb(254,0,0)" stroke-width="1" opacity="1" d="M 14.5 7 L 16 9.5 L 14 8.5 L 14.5 7 Z " /><path fill="rgb(254,0,0)" stroke="rgb(254,0,0)" stroke-width="1" opacity="1" d="M 25.5 12 L 30 13.5 L 28.5 15 L 27.5 14 L 23 13.5 L 25.5 12 Z " /><path fill="rgb(254,0,0)" stroke="rgb(254,0,0)" stroke-width="1" opacity="1" d="M 9.5 13 L 11 16.5 L 6 15.5 L 6 18 L 3 18 L 3 16 L 4.5 16 L 9.5 13 Z " /><path fill="rgb(254,0,0)" stroke="rgb(254,0,0)" stroke-width="1" opacity="1" d="M 41.5 15 L 42 20.5 L 41 20.5 L 40 16.5 L 41.5 15 Z " /><path fill="rgb(254,0,0)" stroke="rgb(254,0,0)" stroke-width="1" opacity="1" d="M 23.5 16 L 29 16.5 L 23.5 17 L 23.5 16 Z " /><path fill="rgb(254,0,0)" stroke="rgb(254,0,0)" stroke-width="1" opacity="1" d="M 15.5 20 L 16.5 22 L 19.5 21 L 22 22.5 L 15 23 L 15.5 20 Z " /><path fill="rgb(254,0,0)" stroke="rgb(254,0,0)" stroke-width="1" opacity="1" d="M 7.5 21 L 9 21 L 9 24 L 5 25 L 5 22 L 6.5 22 L 7.5 21 Z " /><path fill="rgb(254,0,0)" stroke="rgb(254,0,0)" stroke-width="1" opacity="1" d="M 31.5 21 L 34.5 22 L 36 21.5 L 35.5 23 L 29.5 23 L 29.5 22 L 31.5 21 Z " /><path fill="rgb(254,0,0)" stroke="rgb(254,0,0)" stroke-width="1" opacity="1" d="M 43.5 25 L 46 26.5 L 44 27.5 L 43.5 25 Z " /><path fill="rgb(254,0,0)" stroke="rgb(254,0,0)" stroke-width="1" opacity="1" d="M 6.5 26 L 8 31.5 L 6.5 32 L 5 30.5 L 6 29.5 L 6.5 26 Z " /><path fill="rgb(254,0,0)" stroke="rgb(254,0,0)" stroke-width="1" opacity="1" d="M 43.5 31 L 42.5 33 L 43.5 31 Z " /><path fill="rgb(254,0,0)" stroke="rgb(254,0,0)" stroke-width="1" opacity="1" d="M 20.5 34 L 23 34.5 L 20.5 35 L 20.5 34 Z " /><path fill="rgb(254,0,0)" stroke="rgb(254,0,0)" stroke-width="1" opacity="1" d="M 41.5 34 L 42.5 38 L 45 37 L 43.5 40 L 42 39.5 L 41.5 41 L 41.5 34 Z " /><path fill="rgb(254,0,0)" stroke="rgb(254,0,0)" stroke-width="1" opacity="1" d="M 15.5 35 L 17 40.5 L 15 39.5 L 15.5 35 Z " /><path fill="rgb(254,0,0)" stroke="rgb(254,0,0)" stroke-width="1" opacity="1" d="M 7.5 38 L 8.5 40 L 7.5 38 Z " /><path fill="rgb(254,0,0)" stroke="rgb(254,0,0)" stroke-width="1" opacity="1" d="M 25.5 39 L 24.5 41 L 25.5 39 Z " /><path fill="rgb(254,0,0)" stroke="rgb(254,0,0)" stroke-width="1" opacity="1" d="M 21.5 47 L 29 47.5 L 21.5 48 L 21.5 47 Z " /><path fill="rgb(254,0,127)" stroke="rgb(254,0,127)" stroke-width="1" opacity="1" d="M 22.5 0 L 27.5 0 L 38.5 5 L 45 11.5 L 44.5 13 L 47 14.5 L 46 16.5 L 48 17 L 50 28.5 L 48 30.5 L 45.5 38 L 43.5 37 L 43 39.5 L 41.5 43 L 41 41.5 L 43 38.5 L 42 33.5 L 46 26.5 L 42 23.5 L 41.5 15 L 40 15.5 L 34.5 9 L 33 9 L 33 7.5 L 34 5 L 29.5 7 L 28.5 6 L 22.5 6 L 15 9 L 11 14.5 L 9 21 L 5 22 L 5 25 L 6.5 25 L 8 24.5 L 5 30.5 L 9 33.5 L 9 35.5 L 8 39.5 L 11 43.5 L 5 38.5 L 5.5 37 L 4 36.5 L 4.5 35 L 3 35 L 3 33.5 L 0 23.5 L 2 18 L 6 18 L 6 15.5 L 4.5 16 L 3 15.5 L 11 4 L 20.5 2 L 22.5 0 Z M 10 13 L 6 15 L 8 16 L 10 16 L 10 13 Z " /><path fill="rgb(254,0,127)" stroke="rgb(254,0,127)" stroke-width="1" opacity="1" d="M 22.5 13 L 28.5 15 L 31.5 14 L 31.5 15 L 29.5 16 L 20.5 16 L 19.5 14 L 22.5 13 Z " /><path fill="rgb(254,0,127)" stroke="rgb(254,0,127)" stroke-width="1" opacity="1" d="M 13.5 29 L 30 29.5 L 13.5 30 L 13.5 29 Z " /><path fill="rgb(254,0,127)" stroke="rgb(254,0,127)" stroke-width="1" opacity="1" d="M 40.5 34 L 41 39.5 L 40 39.5 L 40.5 34 Z " /><path fill="rgb(254,0,127)" stroke="rgb(254,0,127)" stroke-width="1" opacity="1" d="M 16 35 L 24 35 L 24 37.5 L 26 37.5 L 25 40 L 27 40.5 L 25.5 41 L 23.5 41 L 20.5 40 L 17.5 41 L 16 39.5 L 16 35 Z " /><path fill="rgb(254,0,127)" stroke="rgb(254,0,127)" stroke-width="1" opacity="1" d="M 33.5 38 L 35 39.5 L 33.5 41 L 32 39.5 L 33.5 38 Z " /><path fill="rgb(254,0,127)" stroke="rgb(254,0,127)" stroke-width="1" opacity="1" d="M 22 48 L 29 48.5 L 27.5 50 L 22 50 L 22 48 Z " /><path fill="rgb(254,127,127)" stroke="rgb(254,127,127)" stroke-width="1" opacity="1" d="M 19.5 0 L 22 0.5 L 19.5 1 L 19.5 0 Z " /><path fill="rgb(254,127,127)" stroke="rgb(254,127,127)" stroke-width="1" opacity="1" d="M 28.5 0 L 31 0.5 L 28.5 1 L 28.5 0 Z " /><path fill="rgb(254,127,127)" stroke="rgb(254,127,127)" stroke-width="1" opacity="1" d="M 39.5 4 L 41.5 7 L 39.5 4 Z " /><path fill="rgb(254,127,127)" stroke="rgb(254,127,127)" stroke-width="1" opacity="1" d="M 9.5 5 L 5.5 10 L 9.5 5 Z " /><path fill="rgb(254,127,127)" stroke="rgb(254,127,127)" stroke-width="1" opacity="1" d="M 43.5 8 L 45.5 11 L 43.5 8 Z " /><path fill="rgb(254,127,127)" stroke="rgb(254,127,127)" stroke-width="1" opacity="1" d="M 18.5 9 L 20 9.5 L 17.5 11 L 18.5 9 Z " /><path fill="rgb(254,127,127)" stroke="rgb(254,127,127)" stroke-width="1" opacity="1" d="M 32.5 9 L 33.5 11 L 32.5 9 Z " /><path fill="rgb(254,127,127)" stroke="rgb(254,127,127)" stroke-width="1" opacity="1" d="M 15.5 11 L 14.5 13 L 15.5 11 Z " /><path fill="rgb(254,127,127)" stroke="rgb(254,127,127)" stroke-width="1" opacity="1" d="M 35.5 11 L 36.5 13 L 35.5 11 Z " /><path fill="rgb(254,127,127)" stroke="rgb(254,127,127)" stroke-width="1" opacity="1" d="M 19.5 12 L 18.5 14 L 19.5 12 Z " /><path fill="rgb(254,127,127)" stroke="rgb(254,127,127)" stroke-width="1" opacity="1" d="M 31.5 12 L 32.5 14 L 31.5 12 Z " /><path fill="rgb(254,127,127)" stroke="rgb(254,127,127)" stroke-width="1" opacity="1" d="M 33.5 15 L 32.5 17 L 33.5 15 Z " /><path fill="rgb(254,127,127)" stroke="rgb(254,127,127)" stroke-width="1" opacity="1" d="M 16.5 18 L 19 19.5 L 17.5 20 L 16.5 18 Z " /><path fill="rgb(254,127,127)" stroke="rgb(254,127,127)" stroke-width="1" opacity="1" d="M 34.5 18 L 33.5 20 L 32 19.5 L 34.5 18 Z " /><path fill="rgb(254,127,127)" stroke="rgb(254,127,127)" stroke-width="1" opacity="1" d="M 49.5 19 L 50 21.5 L 49 21.5 L 49.5 19 Z " /><path fill="rgb(254,127,127)" stroke="rgb(254,127,127)" stroke-width="1" opacity="1" d="M 0.5 20 L 1 22.5 L 0 22.5 L 0.5 20 Z " /><path fill="rgb(254,127,127)" stroke="rgb(254,127,127)" stroke-width="1" opacity="1" d="M 40.5 20 L 41 24.5 L 40 24.5 L 40.5 20 Z " /><path fill="rgb(254,127,127)" stroke="rgb(254,127,127)" stroke-width="1" opacity="1" d="M 10.5 21 L 11 24.5 L 10 24.5 L 10.5 21 Z " /><path fill="rgb(254,127,127)" stroke="rgb(254,127,127)" stroke-width="1" opacity="1" d="M 13.5 21 L 14 23.5 L 13 23.5 L 13.5 21 Z " /><path fill="rgb(254,127,127)" stroke="rgb(254,127,127)" stroke-width="1" opacity="1" d="M 24.5 21 L 27 21.5 L 24.5 22 L 24.5 21 Z " /><path fill="rgb(254,127,127)" stroke="rgb(254,127,127)" stroke-width="1" opacity="1" d="M 37.5 21 L 38 23.5 L 37 23.5 L 37.5 21 Z " /><path fill="rgb(254,127,127)" stroke="rgb(254,127,127)" stroke-width="1" opacity="1" d="M 0.5 27 L 1 29.5 L 0 29.5 L 0.5 27 Z " /><path fill="rgb(254,127,127)" stroke="rgb(254,127,127)" stroke-width="1" opacity="1" d="M 28.5 30 L 29 35.5 L 28 35.5 L 28.5 30 Z " /><path fill="rgb(254,127,127)" stroke="rgb(254,127,127)" stroke-width="1" opacity="1" d="M 31.5 32 L 32 34.5 L 31 34.5 L 31.5 32 Z " /><path fill="rgb(254,127,127)" stroke="rgb(254,127,127)" stroke-width="1" opacity="1" d="M 25.5 33 L 26 36.5 L 25 36.5 L 25.5 33 Z " /><path fill="rgb(254,127,127)" stroke="rgb(254,127,127)" stroke-width="1" opacity="1" d="M 34.5 33 L 35 36.5 L 34 36.5 L 34.5 33 Z " /><path fill="rgb(254,127,127)" stroke="rgb(254,127,127)" stroke-width="1" opacity="1" d="M 26.5 38 L 29 39.5 L 27.5 40 L 26.5 38 Z " /><path fill="rgb(254,127,127)" stroke="rgb(254,127,127)" stroke-width="1" opacity="1" d="M 45.5 39 L 44.5 41 L 45.5 39 Z " /><path fill="rgb(254,127,127)" stroke="rgb(254,127,127)" stroke-width="1" opacity="1" d="M 5.5 40 L 9.5 45 L 5.5 40 Z " /><path fill="rgb(254,127,127)" stroke="rgb(254,127,127)" stroke-width="1" opacity="1" d="M 14.5 40 L 16.5 43 L 14.5 40 Z " /><path fill="rgb(254,127,127)" stroke="rgb(254,127,127)" stroke-width="1" opacity="1" d="M 36.5 40 L 34.5 43 L 36.5 40 Z " /><path fill="rgb(254,127,127)" stroke="rgb(254,127,127)" stroke-width="1" opacity="1" d="M 41.5 43 L 39.5 46 L 41.5 43 Z " /><path fill="rgb(254,127,127)" stroke="rgb(254,127,127)" stroke-width="1" opacity="1" d="M 20.5 48 L 21.5 50 L 20 50 L 20.5 48 Z " /><path fill="rgb(254,254,254)" stroke="rgb(254,254,254)" stroke-width="1" opacity="1" d="M 0 0 L 19 0.5 L 10.5 4 L 4 10.5 L 0.5 19 L 0 0 Z " /><path fill="rgb(254,254,254)" stroke="rgb(254,254,254)" stroke-width="1" opacity="1" d="M 32.5 0 L 51 0 L 51 50 L 31.5 50 L 31 46 L 20 46 L 19.5 50 L 0 50 L 0.5 31 L 4 39.5 L 10.5 46 L 16.5 49 L 17 45 L 12 42.5 L 11 32.5 L 8 29.5 L 8 27.5 L 11 24.5 L 12 16.5 L 16.5 11 L 23.5 8 L 27.5 8 L 34.5 11 L 38 14.5 L 40 19.5 L 40 24.5 L 43 27.5 L 43 29.5 L 40 32.5 L 40 40.5 L 37.5 44 L 34 45 L 34 48 L 36.5 48 L 46 39.5 L 50 31.5 L 50 18.5 L 46 10.5 L 39.5 4 L 32.5 1 L 32.5 0 Z M 22 11 L 20 12 L 17 16 L 21 18 L 26 19 L 33 17 L 34 15 L 30 11 L 22 11 Z M 14 18 L 13 22 L 14 24 L 38 24 L 37 18 L 29 21 L 23 21 L 14 18 Z M 11 27 L 12 30 L 28 30 L 28 36 L 30 37 L 32 36 L 32 30 L 40 30 L 40 27 L 11 27 Z M 14 33 L 14 41 L 17 43 L 35 43 L 37 41 L 37 33 L 34 33 L 34 38 L 31 40 L 26 38 L 26 33 L 14 33 Z " /></svg>